<svg xmlns="http://www.w3.org/2000/svg" width="702.56px" height="638.26px" viewBox="-31.29 -279.13 702.57 638.26" vector-effect="non-scaling-stroke"><path fill="none" stroke="red" stroke-width="4" stroke-linejoin="round" stroke-linecap="round" stroke-dasharray="none" d="M 0,0 L 40,69.28 L 70,121.24 A 20 20 150 1 0 90 155.88 L 120,207.85 L 160,277.13 L 240,277.13 L 300,277.13 L 320,297.13 L 340,277.13 L 400,277.13 L 480,277.13 L 640,0 L 600,-69.28 L 570,-121.24 L 552.68,-111.24 L 532.68,-145.88 L 550,-155.88 L 520,-207.85 L 480,-277.13 L 160,-277.13 L 0,0 M 40,69.28 L -29.28,109.28 L 50.72,247.85 L 120,207.85 L 90,155.88 A 20 20 -570 1 1 70 121.24 L 40,69.28 M 160,277.13 M 240,277.13 L 240,357.13 L 400,357.13 L 400,277.13 L 340,277.13 L 320,297.13 L 300,277.13 L 240,277.13 M 480,277.13 M 640,0 M 600,-69.28 L 669.28,-109.28 L 589.28,-247.85 L 520,-207.85 L 550,-155.88 L 532.68,-145.88 L 552.68,-111.24 L 570,-121.24 L 600,-69.28 M 480,-277.13 M 160,-277.13 M 0,0 "/></svg>