<svg xmlns="http://www.w3.org/2000/svg" width="582.56px" height="505.05px" viewBox="-51.29 -215.21 582.57 505.06" vector-effect="non-scaling-stroke"><path fill="white" stroke="black" stroke-width="4" stroke-linejoin="round" stroke-linecap="round" stroke-dasharray="none" d="M 0,0 L 20,34.64 L 50,86.6 A 20 20 150 1 0 70 121.24 L 100,173.21 L 120,207.85 L 160,207.85 L 220,207.85 L 240,227.85 L 260,207.85 L 320,207.85 L 360,207.85 L 480,0 L 460,-34.64 L 430,-86.6 L 412.68,-76.6 L 392.68,-111.24 L 410,-121.24 L 380,-173.21 L 360,-207.85 L 120,-207.85 L 0,0 "/><path fill="red" stroke="black" stroke-width="4" stroke-linejoin="round" stroke-linecap="round" stroke-dasharray="none" d="M 0,0 M 20,34.64 L -49.28,74.64 L 30.72,213.21 L 100,173.21 L 70,121.24 A 20 20 -570 1 1 50 86.6 L 20,34.64 M 120,207.85 "/><path fill="blue" stroke="black" stroke-width="4" stroke-linejoin="round" stroke-linecap="round" stroke-dasharray="none" d="M 120,207.85 M 160,207.85 L 160,287.85 L 320,287.85 L 320,207.85 L 260,207.85 L 240,227.85 L 220,207.85 L 160,207.85 M 360,207.85 M 480,0 "/><path fill="green" stroke="black" stroke-width="4" stroke-linejoin="round" stroke-linecap="round" stroke-dasharray="none" d="M 480,0 M 460,-34.64 L 529.28,-74.64 L 449.28,-213.21 L 380,-173.21 L 410,-121.24 L 392.68,-111.24 L 412.68,-76.6 L 430,-86.6 L 460,-34.64 M 360,-207.85 M 120,-207.85 M 0,0 "/></svg>