<svg xmlns="http://www.w3.org/2000/svg" width="644px" height="578.26px" viewBox="-2.01 -279.13 644.01 578.26" vector-effect="non-scaling-stroke"><path fill="none" stroke="red" stroke-width="4" stroke-linejoin="round" stroke-linecap="round" stroke-dasharray="none" d="M 0,0 L 40,69.28 L 70,121.24 A 20 20 150 1 0 90 155.88 L 120,207.85 L 160,277.13 L 240,277.13 L 300,277.13 L 320,297.13 L 340,277.13 L 400,277.13 L 480,277.13 L 520,207.85 L 600,69.28 L 640,0 L 600,-69.28 L 570,-121.24 L 587.32,-131.24 L 567.32,-165.88 L 550,-155.88 L 520,-207.85 L 480,-277.13 L 400,-277.13 L 240,-277.13 L 160,-277.13 L 120,-207.85 L 40,-69.28 L 0,0 "/></svg>