<svg xmlns="http://www.w3.org/2000/svg" width="164px" height="284px" viewBox="-2.01 -72.01 164.01 284.01" vector-effect="non-scaling-stroke"><path fill="orange" stroke="black" stroke-width="4" stroke-linejoin="round" stroke-linecap="round" stroke-dasharray="none" d="M 0,0 L 60,0 L 60,-20 L 100,-20 L 100,0 L 160,0 L 160,-70 L 0,-70 L 0,0 M 0,70 "/><path fill="yellow" stroke="black" stroke-width="4" stroke-linejoin="round" stroke-linecap="round" stroke-dasharray="none" d="M 0,70 L 60,70 A 20 20 -450 1 1 100 70 L 160,70 L 160,0 L 100,0 L 100,-20 L 60,-20 L 60,0 L 0,0 L 0,70 M 0,140 "/><path fill="pink" stroke="black" stroke-width="4" stroke-linejoin="round" stroke-linecap="round" stroke-dasharray="none" d="M 0,140 L 60,140 L 60,130 L 70,130 L 70,120 L 90,120 L 90,130 L 100,130 L 100,140 L 160,140 L 160,70 L 100,70 A 20 20 -810 1 0 60 70 L 0,70 L 0,140 M 0,210 "/><path fill="cyan" stroke="black" stroke-width="4" stroke-linejoin="round" stroke-linecap="round" stroke-dasharray="none" d="M 0,210 L 160,210 L 160,140 L 100,140 L 100,130 L 90,130 L 90,120 L 70,120 L 70,130 L 60,130 L 60,140 L 0,140 L 0,210 "/></svg>