<svg xmlns="http://www.w3.org/2000/svg" width="144px" height="284px" viewBox="-2.01 -72.01 144.01 284.01" vector-effect="non-scaling-stroke"><path fill="pink" stroke="red" stroke-width="4" stroke-linejoin="round" stroke-linecap="round" stroke-dasharray="none" d="M 0,0 L 50,0 L 70,-20 L 90,0 L 140,0 L 140,-70 L 0,-70 L 0,0 M 0,70 L 50,70 A 20 20 -450 1 1 90 70 L 140,70 L 140,0 L 90,0 L 70,-20 L 50,0 L 0,0 L 0,70 M 0,140 L 50,140 L 50,130 L 60,130 L 60,120 L 80,120 L 80,130 L 90,130 L 90,140 L 140,140 L 140,70 L 90,70 A 20 20 -810 1 0 50 70 L 0,70 L 0,140 M 0,210 L 140,210 L 140,140 L 90,140 L 90,130 L 80,130 L 80,120 L 60,120 L 60,130 L 50,130 L 50,140 L 0,140 L 0,210 "/></svg>