<svg xmlns="http://www.w3.org/2000/svg" width="284px" height="266.49px" viewBox="-72.01 -244.49 284 266.49" vector-effect="non-scaling-stroke"><path fill="pink" stroke="black" stroke-width="4" stroke-linejoin="round" stroke-linecap="round" stroke-dasharray="none" d="M 0,0 L 50,0 L 50,10 L 60,10 L 60,20 L 80,20 L 80,10 L 90,10 L 90,0 L 140,0 L 165,-43.3 L 182.32,-33.3 L 202.32,-67.94 L 185,-77.94 L 210,-121.24 L 185,-164.54 L 157.68,-171.87 L 165,-199.19 L 140,-242.49 L 90,-242.49 L 90,-222.49 L 50,-222.49 L 50,-242.49 L 0,-242.49 L -25,-199.19 L -17.68,-171.87 L -45,-164.54 L -70,-121.24 L -45,-77.94 A 20 20 -210 1 0 -25 -43.3 L 0,0 "/></svg>
