<svg xmlns="http://www.w3.org/2000/svg" width="164px" height="404px" viewBox="-2.01 -82.01 164.01 404.01" vector-effect="non-scaling-stroke"><path fill="orange" stroke="black" stroke-width="4" stroke-linejoin="round" stroke-linecap="round" stroke-dasharray="none" d="M 0,0 L 60,0 A 20 20 90 1 0 100 0 L 160,0 L 160,-80 L 0,-80 L 0,0 M 0,80 "/><path fill="yellow" stroke="black" stroke-width="4" stroke-linejoin="round" stroke-linecap="round" stroke-dasharray="none" d="M 0,80 L 60,80 L 80,100 L 100,80 L 160,80 L 160,0 L 100,0 A 20 20 -630 1 1 60 0 L 0,0 L 0,80 M 0,160 "/><path fill="pink" stroke="black" stroke-width="4" stroke-linejoin="round" stroke-linecap="round" stroke-dasharray="none" d="M 0,160 L 60,160 L 60,180 L 100,180 L 100,160 L 160,160 L 160,80 L 100,80 L 80,100 L 60,80 L 0,80 L 0,160 M 0,240 "/><path fill="cyan" stroke="black" stroke-width="4" stroke-linejoin="round" stroke-linecap="round" stroke-dasharray="none" d="M 0,240 L 60,240 L 60,250 L 70,250 L 70,260 L 90,260 L 90,250 L 100,250 L 100,240 L 160,240 L 160,160 L 100,160 L 100,180 L 60,180 L 60,160 L 0,160 L 0,240 M 0,320 "/><path fill="lightgreen" stroke="black" stroke-width="4" stroke-linejoin="round" stroke-linecap="round" stroke-dasharray="none" d="M 0,320 L 160,320 L 160,240 L 100,240 L 100,250 L 90,250 L 90,260 L 70,260 L 70,250 L 60,250 L 60,240 L 0,240 L 0,320 "/></svg>