<?xml version="1.0" standalone="no"?>
<!DOCTYPE svg PUBLIC "-//W3C//DTD SVG 20010904//EN"
 "http://www.w3.org/TR/2001/REC-SVG-20010904/DTD/svg10.dtd">
<svg version="1.0" xmlns="http://www.w3.org/2000/svg"
 width="1968.000000pt" height="1204.000000pt" viewBox="0 0 1968.000000 1204.000000"
 preserveAspectRatio="xMidYMid meet">
<metadata>
Created by potrace 1.15, written by Peter Selinger 2001-2017
</metadata>
<g transform="translate(0.000000,1204.000000) scale(0.100000,-0.100000)"
fill="#000000" stroke="none">
<path d="M383 11910 l-203 -5 -27 -28 -28 -27 -6 -218 c-3 -119 -5 -2728 -5
-5797 1 -5315 2 -5582 19 -5612 9 -18 32 -41 50 -50 30 -17 223 -18 3882 -21
2968 -2 3856 0 3880 9 40 16 62 36 80 72 13 26 15 152 15 934 l0 903 1789 0
1789 0 6 -22 c3 -13 6 -423 6 -912 l0 -889 26 -34 c14 -18 38 -40 54 -48 27
-14 448 -15 3882 -13 3401 3 3856 5 3883 18 16 8 39 30 51 47 21 31 22 48 29
315 3 156 5 2758 3 5783 -3 5236 -4 5502 -21 5532 -9 18 -32 41 -50 50 -31 17
-466 18 -9467 18 -5189 1 -9526 -1 -9637 -5z m18924 -243 c5 -5 4 -11258 -1
-11265 -2 -4 -1674 -6 -3715 -4 l-3710 2 -5 823 c-3 452 -8 860 -11 907 -7
102 -23 141 -71 169 l-35 21 -1935 0 c-2138 0 -1973 5 -2014 -63 -19 -31 -20
-57 -20 -944 l0 -913 -3707 -2 c-2040 -2 -3711 -1 -3715 2 -5 4 -13 10929 -8
11270 0 6 18941 2 18947 -3z"/>
</g>
</svg>
