<?xml version="1.0" standalone="no"?>
<!DOCTYPE svg PUBLIC "-//W3C//DTD SVG 20010904//EN"
 "http://www.w3.org/TR/2001/REC-SVG-20010904/DTD/svg10.dtd">
<svg version="1.0" xmlns="http://www.w3.org/2000/svg"
 width="1968.000000pt" height="1204.000000pt" viewBox="0 0 1968.000000 1204.000000"
 preserveAspectRatio="xMidYMid meet">
<metadata>
Created by potrace 1.15, written by Peter Selinger 2001-2017
</metadata>
<g transform="translate(0.000000,1204.000000) scale(0.100000,-0.100000)"
fill="#000000" stroke="none">
<path d="M4177 11909 c-151 -9 -173 -16 -207 -72 -19 -31 -20 -57 -20 -903 0
-479 -3 -886 -6 -903 l-7 -31 -1880 0 c-1792 1 -1880 0 -1899 -17 -11 -10 -26
-30 -34 -45 -12 -23 -14 -689 -14 -4500 0 -2925 3 -4539 10 -4663 6 -104 14
-267 19 -361 9 -187 16 -210 75 -242 29 -16 596 -17 9216 -20 8808 -4 9852 -1
10018 24 18 3 47 18 65 33 l31 29 7 133 c4 74 8 2253 9 4843 l1 4709 -27 28
c-14 15 -38 32 -53 38 -18 7 -595 12 -1841 15 -998 2 -1839 7 -1868 11 l-54 7
3 907 c3 1007 8 935 -67 971 -40 20 -69 20 -1830 20 -984 -1 -1861 -5 -1948
-10 -176 -9 -195 -16 -229 -81 -16 -32 -17 -89 -15 -932 l3 -897 -1751 0
c-963 0 -1772 3 -1798 6 l-48 7 3 911 c3 1013 8 940 -67 976 -40 20 -68 20
-1850 19 -995 -1 -1871 -6 -1947 -10z m3629 -281 c-4 -24 -9 -428 -12 -898 -5
-844 -5 -855 15 -887 34 -54 65 -67 175 -76 56 -5 934 -11 1951 -13 1482 -4
1855 -2 1875 8 31 16 70 58 71 78 0 8 0 423 -1 923 l-1 907 1806 0 1807 0 -6
-37 c-4 -21 -9 -425 -12 -898 -5 -848 -5 -860 15 -892 39 -62 57 -67 261 -76
102 -4 949 -10 1884 -13 l1698 -5 -7 -42 c-4 -23 -9 -2121 -11 -4662 -3 -2541
-6 -4624 -7 -4630 -3 -7 -3168 -11 -9464 -13 l-9461 -2 -7 52 c-4 29 -9 2133
-11 4676 l-4 4622 1856 0 1856 0 40 22 c50 29 66 63 73 168 3 47 8 455 11 908
l5 822 1805 0 1806 0 -6 -42z"/>
</g>
</svg>
