<?xml version="1.0" standalone="no"?>
<!DOCTYPE svg PUBLIC "-//W3C//DTD SVG 20010904//EN"
 "http://www.w3.org/TR/2001/REC-SVG-20010904/DTD/svg10.dtd">
<svg version="1.0" xmlns="http://www.w3.org/2000/svg"
 width="1968.000000pt" height="1204.000000pt" viewBox="0 0 1968.000000 1204.000000"
 preserveAspectRatio="xMidYMid meet">
<metadata>
Created by potrace 1.15, written by Peter Selinger 2001-2017
</metadata>
<g transform="translate(0.000000,1204.000000) scale(0.100000,-0.100000)"
fill="#000000" stroke="none">
<path d="M5941 11905 c-14 -8 -450 -439 -970 -959 l-946 -946 -1910 -1 c-1792
0 -1912 -2 -1939 -18 -17 -9 -38 -30 -47 -47 -17 -27 -18 -249 -18 -3894 -1
-3840 -1 -3865 19 -3898 11 -18 34 -41 52 -52 33 -20 55 -20 1938 -20 l1905 0
945 -946 c520 -520 957 -952 972 -960 15 -8 39 -14 53 -14 14 0 38 6 53 14 15
8 452 440 972 960 l945 946 1870 0 1870 0 945 -946 c520 -520 957 -952 972
-960 34 -18 72 -18 106 0 15 8 452 440 972 960 l945 946 1891 0 1891 0 43 23
c31 16 51 36 67 68 l22 44 1 3829 0 3830 -21 43 c-14 29 -35 52 -63 68 l-43
25 -1894 0 -1894 0 -945 946 c-520 520 -957 952 -972 960 -15 8 -39 14 -53 14
-14 0 -38 -6 -53 -14 -15 -8 -452 -440 -972 -960 l-945 -946 -1870 0 -1870 0
-945 946 c-520 520 -957 952 -972 960 -33 17 -75 17 -107 -1z m979 -1211 c503
-503 927 -922 942 -930 41 -22 3901 -21 3944 1 16 8 441 426 944 930 503 503
919 915 925 915 5 0 428 -418 940 -930 l930 -930 1883 0 1882 0 0 -3715 0
-3715 -1882 0 -1883 0 -930 -930 c-512 -511 -935 -930 -940 -930 -6 0 -422
412 -925 915 -503 504 -928 922 -944 930 -25 13 -285 15 -1985 15 l-1956 0
-930 -930 c-512 -511 -935 -930 -940 -930 -6 0 -422 412 -925 915 -503 504
-928 922 -944 930 -25 13 -275 15 -1898 15 l-1868 0 0 3715 0 3715 1868 0
c1623 0 1873 2 1898 15 16 8 441 426 944 930 503 503 919 915 925 915 6 0 422
-412 925 -916z"/>
</g>
</svg>
