<?xml version="1.0" standalone="no"?>
<!DOCTYPE svg PUBLIC "-//W3C//DTD SVG 20010904//EN"
 "http://www.w3.org/TR/2001/REC-SVG-20010904/DTD/svg10.dtd">
<svg version="1.0" xmlns="http://www.w3.org/2000/svg"
 width="1968.000000pt" height="1204.000000pt" viewBox="0 0 1968.000000 1204.000000"
 preserveAspectRatio="xMidYMid meet">
<metadata>
Created by potrace 1.15, written by Peter Selinger 2001-2017
</metadata>
<g transform="translate(0.000000,1204.000000) scale(0.100000,-0.100000)"
fill="#000000" stroke="none">
<path d="M8115 11910 c-33 -4 -96 -8 -140 -9 -91 -1 -132 -19 -165 -73 -19
-32 -20 -53 -20 -930 l0 -898 -3792 -1 c-3573 0 -3795 -1 -3822 -18 -17 -9
-38 -32 -48 -50 -18 -32 -19 -183 -16 -4855 3 -4587 4 -4823 21 -4853 9 -18
32 -41 50 -50 30 -17 139 -18 1970 -21 l1938 -3 42 25 c23 14 449 432 947 930
498 498 909 906 915 906 6 0 426 -416 934 -924 630 -630 937 -930 963 -942 32
-14 44 -15 77 -6 28 9 526 12 1923 12 l1884 0 45 29 c24 16 449 434 944 930
495 496 904 901 910 901 6 0 422 -412 925 -916 503 -503 934 -927 958 -941 34
-20 49 -24 75 -18 17 5 880 11 1917 14 1386 4 1892 9 1910 18 14 6 38 25 55
43 29 30 30 35 36 153 4 67 7 2239 8 4827 l1 4705 -23 38 c-13 21 -36 44 -51
52 -25 13 -514 15 -3818 15 l-3790 0 3 918 c3 1011 7 943 -62 981 l-37 21
-1803 -1 c-992 -1 -1831 -5 -1864 -9z m3531 -277 c-4 -21 -9 -430 -13 -908 -5
-844 -5 -872 14 -905 11 -19 32 -42 49 -51 27 -17 249 -18 3821 -18 l3793 -1
2 -4671 c2 -2569 0 -4673 -4 -4675 -3 -2 -829 -4 -1835 -4 l-1828 0 -950 948
c-522 521 -960 953 -972 960 -13 6 -32 12 -43 12 -32 0 -87 -31 -101 -56 -7
-13 -17 -24 -23 -24 -6 0 -425 -414 -931 -920 l-920 -920 -1870 0 -1870 0
-945 945 c-520 520 -958 952 -974 960 -16 8 -37 15 -46 15 -34 0 -91 -31 -102
-55 -6 -14 -16 -25 -22 -25 -6 0 -425 -414 -931 -920 l-920 -920 -1828 0
c-1006 0 -1832 2 -1835 4 -4 2 -6 2106 -4 4675 l2 4671 3789 0 3788 0 34 23
c72 48 68 -10 69 988 0 493 3 899 7 902 3 4 816 7 1806 7 l1799 0 -6 -37z"/>
</g>
</svg>
