<svg xmlns="http://www.w3.org/2000/svg" viewBox="-2 -2 504 1536" width="506" height="1538">
  <defs>
    <style type="text/css"><![CDATA[
text {
  font-size: 40px;
  font-family: sans-serif;
  fill: #000000;
}

path {
  stroke: #000000;
  stroke-width: 6px;
}

/*
IBM palette for colour-blind people
https://davidmathlogic.com/colorblind/#%23648FFF-%23785EF0-%23DC267F-%23FE6100-%23FFB000
*/

.test {
  fill: #FFB000;
}

.infrastructure {
  fill: #DC267F;
}

.production {
  fill: #648FFF;
}

    ]]></style>
  </defs>
  <g transform="translate(0, 0)" class="test">
    <path stroke="#000000" stroke-width="4" d="M 0 0 l 50 0 l 50 0 l 50 0 l 50 0 l 50 0 l 50 0 l 50 0 l 50 0 l 50 0 l 50 0 l 0 50 l 0 150 l 0 50 l -50 0 l -50 0 l -50 0 l 0 -50 l -50 0 l -50 0 l -50 0 l -50 0 l 0 50 l -50 0 l -50 0 l -50 0 z" />
    <text x="50%" y="150" alignment-baseline="middle" text-anchor="middle">Actor</text>
  </g>
  <g transform="translate(0, 200)" class="test">
    <path stroke="#000000" stroke-width="4" d="M 0 50 l 50 0 l 50 0 l 50 0 l 0 -50 l 50 0 l 50 0 l 50 0 l 50 0 l 0 50 l 50 0 l 50 0 l 50 0 l 0 150 l 0 50 l -50 0 l -50 0 l -50 -50 l -50 50 l -50 0 l -50 0 l -50 -50 l -50 50 l -50 0 l -50 0 z" />
    <text x="50%" y="150" alignment-baseline="middle" text-anchor="middle">DomInteraction</text>
  </g>
  <g transform="translate(0, 400)" class="infrastructure">
    <path stroke="#000000" stroke-width="4" d="M 0 50 l 50 0 l 50 0 l 50 -50 l 50 50 l 50 0 l 50 0 l 50 -50 l 50 50 l 50 0 l 50 0 l 0 150 l -50 0 l -50 0 l -50 50 l -50 -50 l -50 0 l -50 0 l -50 50 l -50 -50 l -50 0 l -50 0 z" />
    <text x="50%" y="150" alignment-baseline="middle" text-anchor="middle">DOM</text>
  </g>
  <g transform="translate(0, 600)" class="production">
    <path stroke="#000000" stroke-width="4" d="M 0 0 l 50 0 l 50 0 l 50 50 l 50 -50 l 50 0 l 50 0 l 50 50 l 50 -50 l 50 0 l 50 0 l 0 50 l 0 150 l 0 50 l -50 0 l -50 0 l 0 -50 l -50 0 l -50 0 l 0 50 l -50 0 l -50 0 l 0 -50 l -50 0 l -50 0 l 0 50 l -50 0 l -50 0 z" />
    <text x="50%" y="150" alignment-baseline="middle" text-anchor="middle">ReactApp</text>
  </g>
  <g transform="translate(0, 800)" class="test">
    <path stroke="#000000" stroke-width="4" d="M 0 50 l 50 0 l 50 0 l 0 -50 l 50 0 l 50 0 l 0 50 l 50 0 l 50 0 l 0 -50 l 50 0 l 50 0 l 0 50 l 50 0 l 50 0 l 0 150 l 0 50 l -50 0 l 0 -50 l -50 0 l 0 50 l -50 0 l 0 -50 l -50 0 l 0 50 l -50 0 l -50 0 l 0 -50 l -50 0 l 0 50 l -50 0 l 0 -50 l -50 0 l 0 50 l -50 0 z" />
    <text x="50%" y="150" alignment-baseline="middle" text-anchor="middle">DomainSession</text>
  </g>
  <g transform="translate(0, 1000)" class="production">
    <path stroke="#000000" stroke-width="4" d="M 0 50 l 50 0 l 0 -50 l 50 0 l 0 50 l 50 0 l 0 -50 l 50 0 l 0 50 l 50 0 l 50 0 l 0 -50 l 50 0 l 0 50 l 50 0 l 0 -50 l 50 0 l 0 50 l 50 0 l 0 150 l 0 50 l -50 0 l -50 0 l -50 0 l -50 0 l -50 0 l -50 0 l -50 0 l -50 0 l -50 0 l -50 0 z" />
    <text x="50%" y="150" alignment-baseline="middle" text-anchor="middle">DomainLogic</text>
  </g>
</svg>
