<svg xmlns="http://www.w3.org/2000/svg" viewBox="0 0 520 878.2842712474619" width="520" height="878.2842712474619">
  <defs>
    <style type="text/css"><![CDATA[
text {
  font-size: 40px;
  font-family: sans-serif;
  fill: #000000;
}

path {
  stroke: #000000;
  /*
  Do not specify stroke-width here.
  It is specified in Assembly#toSvg because
  the stroke width is needed to calculate the width
  and height of the SVG
  */
}

/*
IBM palette for colour-blind people
https://davidmathlogic.com/colorblind/#%23648FFF-%23785EF0-%23DC267F-%23FE6100-%23FFB000
*/

.test {
  fill: #FFB000;
}

.infrastructure {
  fill: #DC267F;
}

.production {
  fill: #648FFF;
}

    ]]></style>
  </defs>
  <g stroke-width="20" transform="translate(10, 14.142135623730951)" class="test">
    <path d="M 0 0 l 50 0 l 50 0 l 50 0 l 50 0 l 50 0 l 50 0 l 50 0 l 50 0 l 50 0 l 50 0 l 0 50 l 0 150 l 0 50 l -50 0 l -50 0 l -50 0 l 0 -50 l -50 0 l -50 0 l -50 0 l -50 0 l 0 50 l -50 0 l -50 0 l -50 0 z" />
    <text x="50%" y="128" alignment-baseline="middle" text-anchor="middle">Actor</text>
  </g>
  <g stroke-width="20" transform="translate(10, 214.14213562373095)" class="test">
    <path d="M 0 50 l 50 0 l 50 0 l 50 0 l 0 -50 l 50 0 l 50 0 l 50 0 l 50 0 l 0 50 l 50 0 l 50 0 l 50 0 l 0 150 l 0 50 l -50 0 l -50 0 l 0 -50 l -50 0 l -50 0 l 0 50 l -50 0 l -50 0 l 0 -50 l -50 0 l -50 0 l 0 50 l -50 0 l -50 0 z" />
    <text x="50%" y="128" alignment-baseline="middle" text-anchor="middle">SessionInteraction</text>
  </g>
  <g stroke-width="20" transform="translate(10, 414.14213562373095)" class="test">
    <path d="M 0 50 l 50 0 l 50 0 l 0 -50 l 50 0 l 50 0 l 0 50 l 50 0 l 50 0 l 0 -50 l 50 0 l 50 0 l 0 50 l 50 0 l 50 0 l 0 150 l 0 50 l -50 0 l 0 -50 l -50 0 l 0 50 l -50 0 l 0 -50 l -50 0 l 0 50 l -50 0 l -50 0 l 0 -50 l -50 0 l 0 50 l -50 0 l 0 -50 l -50 0 l 0 50 l -50 0 z" />
    <text x="50%" y="128" alignment-baseline="middle" text-anchor="middle">DomainSession</text>
  </g>
  <g stroke-width="20" transform="translate(10, 614.142135623731)" class="production">
    <path d="M 0 50 l 50 0 l 0 -50 l 50 0 l 0 50 l 50 0 l 0 -50 l 50 0 l 0 50 l 50 0 l 50 0 l 0 -50 l 50 0 l 0 50 l 50 0 l 0 -50 l 50 0 l 0 50 l 50 0 l 0 150 l 0 50 l -50 0 l -50 0 l -50 0 l -50 0 l -50 0 l -50 0 l -50 0 l -50 0 l -50 0 l -50 0 z" />
    <text x="50%" y="128" alignment-baseline="middle" text-anchor="middle">DomainLogic</text>
  </g>
</svg>
