<svg xmlns="http://www.w3.org/2000/svg" viewBox="-2 -2 504 1024" width="506" height="1026">
  <defs>
    <style type="text/css"><![CDATA[
text {
  font-size: 40px;
  font-family: sans-serif;
  fill: #000000;
}

path {
  stroke: #000000;
  stroke-width: 6px;
}

.test {
  fill: #7fb069;
}

.infrastructure {
  fill: #e09195;
}

.production {
  fill: #06bee1;
}

    ]]></style>
  </defs>
  <g transform="translate(0, 0)" class="test">
    <path stroke="#000000" stroke-width="4" d="M 0 0 l 50 0 l 50 0 l 50 0 l 50 0 l 50 0 l 50 0 l 50 0 l 50 0 l 50 0 l 50 0 l 0 50 l 0 150 l 0 50 l -50 0 l -50 0 l -50 0 l 0 -50 l -50 0 l -50 0 l -50 0 l -50 0 l 0 50 l -50 0 l -50 0 l -50 0 z" />
    <text x="50%" y="150" alignment-baseline="middle" text-anchor="middle">Actor</text>
  </g>
  <g transform="translate(0, 200)" class="test">
    <path stroke="#000000" stroke-width="4" d="M 0 50 l 50 0 l 50 0 l 50 0 l 0 -50 l 50 0 l 50 0 l 50 0 l 50 0 l 0 50 l 50 0 l 50 0 l 50 0 l 0 150 l 0 50 l -50 0 l -50 0 l 0 -50 l -50 0 l -50 0 l 0 50 l -50 0 l -50 0 l 0 -50 l -50 0 l -50 0 l 0 50 l -50 0 l -50 0 z" />
    <text x="50%" y="150" alignment-baseline="middle" text-anchor="middle">SessionInteraction</text>
  </g>
  <g transform="translate(0, 400)" class="test">
    <path stroke="#000000" stroke-width="4" d="M 0 50 l 50 0 l 50 0 l 0 -50 l 50 0 l 50 0 l 0 50 l 50 0 l 50 0 l 0 -50 l 50 0 l 50 0 l 0 50 l 50 0 l 50 0 l 0 150 l 0 50 l -50 0 l 0 -50 l -50 0 l 0 50 l -50 0 l 0 -50 l -50 0 l 0 50 l -50 0 l -50 0 l 0 -50 l -50 0 l 0 50 l -50 0 l 0 -50 l -50 0 l 0 50 l -50 0 z" />
    <text x="50%" y="150" alignment-baseline="middle" text-anchor="middle">DomainSession</text>
  </g>
  <g transform="translate(0, 600)" class="production">
    <path stroke="#000000" stroke-width="4" d="M 0 50 l 50 0 l 0 -50 l 50 0 l 0 50 l 50 0 l 0 -50 l 50 0 l 0 50 l 50 0 l 50 0 l 0 -50 l 50 0 l 0 50 l 50 0 l 0 -50 l 50 0 l 0 50 l 50 0 l 0 150 l 0 50 l -50 0 l -50 0 l -50 0 l -50 0 l -50 0 l -50 0 l -50 0 l -50 0 l -50 0 l -50 0 z" />
    <text x="50%" y="150" alignment-baseline="middle" text-anchor="middle">DomainLogic</text>
  </g>
</svg>
