<?xml version="1.0" standalone="no"?>
<!DOCTYPE svg PUBLIC "-//W3C//DTD SVG 20010904//EN"
 "http://www.w3.org/TR/2001/REC-SVG-20010904/DTD/svg10.dtd">
<svg version="1.0" xmlns="http://www.w3.org/2000/svg"
 width="1968.000000pt" height="1204.000000pt" viewBox="0 0 1968.000000 1204.000000"
 preserveAspectRatio="xMidYMid meet">
<metadata>
Created by potrace 1.15, written by Peter Selinger 2001-2017
</metadata>
<g transform="translate(0.000000,1204.000000) scale(0.100000,-0.100000)"
fill="#000000" stroke="none">
<path d="M385 11910 c-119 -3 -188 -9 -202 -18 -49 -28 -54 -54 -64 -365 -6
-182 -9 -2362 -7 -5787 3 -5433 3 -5495 23 -5527 40 -66 -18 -63 1062 -63
l979 0 45 29 c24 16 449 434 944 930 495 496 904 901 910 901 6 0 422 -412
925 -916 503 -503 927 -922 942 -930 34 -18 72 -18 106 0 15 8 439 427 942
930 503 504 919 916 925 916 6 0 415 -405 910 -901 495 -496 920 -914 944
-930 25 -16 54 -29 66 -29 12 0 41 13 66 29 24 16 449 434 944 930 495 496
904 901 910 901 6 0 422 -412 925 -916 503 -503 927 -922 942 -930 34 -18 72
-18 106 0 15 8 439 427 942 930 503 504 919 916 925 916 5 0 424 -413 930
-918 768 -767 927 -921 960 -931 31 -10 256 -12 1000 -9 895 3 962 4 992 21
58 31 63 54 74 320 6 155 9 2243 7 5787 -3 5483 -3 5545 -23 5577 -40 66 18
63 -1062 63 l-979 0 -45 -29 c-24 -16 -449 -434 -944 -930 -495 -496 -904
-901 -910 -901 -6 0 -422 412 -925 915 -503 504 -928 922 -944 930 -16 8 -39
15 -51 15 -12 0 -35 -7 -51 -15 -16 -8 -441 -426 -944 -930 -503 -503 -919
-915 -925 -915 -6 0 -422 412 -925 915 -503 504 -928 922 -944 930 -16 8 -39
15 -51 15 -12 0 -35 -7 -51 -15 -16 -8 -441 -426 -944 -930 -503 -503 -919
-915 -925 -915 -6 0 -422 412 -925 916 -503 503 -927 922 -942 930 -15 8 -39
14 -53 14 -14 0 -38 -6 -53 -14 -15 -8 -439 -427 -942 -930 -503 -504 -919
-916 -925 -916 -6 0 -422 412 -925 915 -503 504 -928 922 -944 930 -25 13
-144 15 -835 13 -443 -1 -887 -5 -986 -8z m2670 -1188 c523 -521 960 -953 972
-960 30 -16 64 -15 99 3 16 8 441 426 944 930 503 503 919 915 925 915 5 0
428 -418 940 -930 l930 -930 50 0 50 0 930 930 c512 512 935 930 940 930 6 0
417 -408 915 -906 498 -498 922 -917 942 -930 43 -28 73 -30 114 -9 16 8 441
426 944 930 503 503 919 915 925 915 5 0 428 -418 940 -930 l930 -930 50 0 50
0 960 959 960 959 875 4 875 3 0 -42 c-1 -24 -2 -2561 -3 -5638 l-2 -5595
-872 0 -873 0 -960 960 -960 960 -50 0 -50 0 -930 -930 c-512 -511 -935 -930
-940 -930 -6 0 -422 412 -925 915 -503 504 -928 922 -944 930 -36 19 -55 19
-97 1 -21 -9 -377 -358 -949 -930 -503 -504 -919 -916 -925 -916 -5 0 -428
419 -940 930 l-930 930 -50 0 -50 0 -930 -930 c-512 -511 -935 -930 -940 -930
-6 0 -422 412 -925 915 -503 504 -928 922 -944 930 -35 18 -69 19 -99 3 -12
-7 -449 -439 -972 -959 l-950 -947 -872 -4 c-627 -4 -873 -2 -873 6 -2 973 1
11260 4 11264 2 4 395 6 873 4 l868 -2 950 -948z"/>
</g>
</svg>
