<?xml version="1.0" standalone="no"?>
<!DOCTYPE svg PUBLIC "-//W3C//DTD SVG 20010904//EN"
 "http://www.w3.org/TR/2001/REC-SVG-20010904/DTD/svg10.dtd">
<svg version="1.0" xmlns="http://www.w3.org/2000/svg"
 width="1968.000000pt" height="1204.000000pt" viewBox="0 0 1968.000000 1204.000000"
 preserveAspectRatio="xMidYMid meet">
<metadata>
Created by potrace 1.15, written by Peter Selinger 2001-2017
</metadata>
<g transform="translate(0.000000,1204.000000) scale(0.100000,-0.100000)"
fill="#000000" stroke="none">
<path d="M4040 11909 c-34 -14 11 31 -1015 -992 l-920 -917 -940 0 c-914 0
-941 -1 -972 -20 -59 -36 -63 -51 -74 -262 -6 -122 -9 -1901 -7 -4828 3 -4409
4 -4637 21 -4667 9 -18 32 -41 50 -50 30 -17 139 -18 1957 -21 1831 -3 1927
-2 1959 15 68 36 75 56 83 241 4 92 10 503 14 914 l6 748 1805 0 1805 0 -7
-23 c-4 -12 -9 -418 -12 -902 -4 -868 -4 -880 16 -912 36 -57 56 -64 223 -73
84 -5 962 -9 1952 -10 l1798 0 37 21 c21 11 43 30 50 42 11 17 13 194 12 939
l-2 918 1787 -2 1787 -3 5 -25 c2 -14 6 -419 9 -901 4 -835 5 -878 23 -907 34
-56 55 -63 227 -73 180 -10 3573 -10 3702 1 78 6 86 9 112 38 l28 31 0 4683
c0 2576 -3 4754 -8 4840 -9 172 -16 193 -74 228 -31 19 -58 20 -972 20 l-940
0 -945 945 c-683 682 -956 949 -983 960 -48 20 -95 7 -131 -36 -14 -16 -28
-29 -33 -29 -4 0 -409 -400 -898 -890 -489 -489 -894 -890 -900 -890 -5 0
-424 413 -930 919 -973 972 -955 955 -1021 931 -39 -15 16 38 -989 -963 -490
-488 -895 -887 -900 -887 -6 0 -422 412 -925 915 -503 504 -928 922 -944 930
-16 8 -39 15 -51 15 -12 0 -35 -7 -51 -15 -16 -8 -441 -426 -944 -930 -503
-503 -919 -915 -925 -915 -5 0 -422 412 -925 915 -867 866 -953 948 -997 944
-4 0 -19 -5 -33 -10z m12475 -1209 c517 -518 953 -947 969 -955 33 -17 92 -20
101 -5 4 7 303 10 866 10 l859 0 2 -4671 c2 -2568 0 -4673 -4 -4677 -4 -4
-812 -6 -1797 -4 l-1789 2 -6 753 c-7 845 -14 1058 -36 1100 -7 16 -31 37 -52
48 -36 19 -83 19 -1970 18 -1812 0 -1935 -2 -1962 -18 -17 -9 -38 -32 -48 -50
-18 -32 -19 -72 -16 -942 l3 -909 -1798 0 -1799 0 3 918 c3 871 2 918 -15 944
-41 62 99 58 -1940 58 -1092 0 -1901 -4 -1958 -10 -110 -11 -128 -19 -156 -69
-20 -35 -20 -59 -24 -933 -2 -493 -6 -899 -9 -902 -6 -7 -3567 -9 -3577 -2 -4
2 -6 2106 -4 4675 l2 4671 922 0 923 0 930 930 c512 512 935 930 940 930 6 0
397 -387 870 -861 473 -473 876 -871 896 -884 20 -13 46 -39 58 -58 28 -45 85
-65 133 -47 22 8 351 330 953 931 506 506 924 919 930 919 5 0 428 -418 940
-930 l930 -930 50 0 50 0 930 930 c512 512 935 930 940 930 5 0 428 -418 940
-930 928 -927 931 -930 970 -929 57 1 96 28 123 84 19 39 185 211 765 794 917
920 1009 1011 1016 1011 3 0 429 -423 946 -940z"/>
</g>
</svg>
