<?xml version="1.0" standalone="no"?>
<!DOCTYPE svg PUBLIC "-//W3C//DTD SVG 20010904//EN"
 "http://www.w3.org/TR/2001/REC-SVG-20010904/DTD/svg10.dtd">
<svg version="1.0" xmlns="http://www.w3.org/2000/svg"
 width="1968.000000pt" height="1204.000000pt" viewBox="0 0 1968.000000 1204.000000"
 preserveAspectRatio="xMidYMid meet">
<metadata>
Created by potrace 1.15, written by Peter Selinger 2001-2017
</metadata>
<g transform="translate(0.000000,1204.000000) scale(0.100000,-0.100000)"
fill="#000000" stroke="none">
<path d="M373 11910 l-193 -5 -27 -28 -28 -27 -6 -228 c-3 -125 -5 -2733 -5
-5797 1 -5305 2 -5572 19 -5602 9 -18 32 -41 50 -50 30 -17 139 -18 1957 -21
1830 -2 1927 -2 1959 15 69 36 75 54 83 251 4 97 10 509 14 914 l6 738 1805 0
1805 0 -7 -23 c-4 -12 -9 -418 -12 -902 -4 -868 -4 -880 16 -912 36 -57 56
-64 223 -73 84 -5 960 -9 1947 -10 1766 0 1795 0 1835 20 75 36 70 -38 67 982
l-3 918 1799 0 1798 0 -3 -897 c-2 -843 -1 -900 15 -932 33 -64 53 -71 224
-81 170 -10 3418 -11 3647 -1 l144 6 29 33 29 32 -3 5793 c-2 5516 -3 5794
-20 5824 -9 18 -32 41 -50 50 -30 17 -140 18 -1970 21 -1725 3 -1942 2 -1970
-12 -18 -8 -444 -427 -947 -931 -503 -503 -919 -915 -925 -915 -6 0 -415 405
-910 901 -495 496 -920 914 -944 930 l-45 29 -1941 0 c-1687 0 -1946 -2 -1971
-15 -16 -8 -441 -426 -944 -930 -503 -503 -919 -915 -925 -915 -6 0 -415 405
-910 901 -495 496 -920 914 -944 930 l-45 29 -1765 -2 c-972 -1 -1853 -5
-1958 -8z m4552 -1138 c495 -494 912 -904 928 -912 15 -8 30 -24 33 -36 7 -25
74 -74 103 -74 10 0 34 6 52 14 21 9 388 369 979 960 l945 946 1870 0 1870 0
960 -960 960 -960 50 0 50 0 960 960 960 960 1833 2 c1216 2 1832 0 1832 -7 3
-575 -1 -11259 -4 -11263 -2 -4 -810 -6 -1796 -4 l-1791 2 2 918 c2 858 1 920
-16 945 -40 61 98 57 -1939 57 -1092 0 -1901 -4 -1958 -10 -111 -11 -128 -19
-158 -73 l-22 -38 6 -857 c3 -471 8 -876 12 -900 l6 -42 -1807 0 -1807 0 3
918 c3 873 3 918 -15 944 -41 62 92 58 -1860 57 -1814 0 -2113 -4 -2153 -29
-12 -8 -30 -30 -41 -49 -20 -35 -20 -59 -24 -933 -2 -493 -6 -899 -9 -902 -6
-6 -3569 -9 -3575 -3 -3 2 -6 11081 -4 11267 0 3 825 4 1832 2 l1833 -2 900
-898z"/>
</g>
</svg>
