<?xml version="1.0" standalone="no"?>
<!DOCTYPE svg PUBLIC "-//W3C//DTD SVG 20010904//EN"
 "http://www.w3.org/TR/2001/REC-SVG-20010904/DTD/svg10.dtd">
<svg version="1.0" xmlns="http://www.w3.org/2000/svg"
 width="1968.000000pt" height="1204.000000pt" viewBox="0 0 1968.000000 1204.000000"
 preserveAspectRatio="xMidYMid meet">
<metadata>
Created by potrace 1.15, written by Peter Selinger 2001-2017
</metadata>
<g transform="translate(0.000000,1204.000000) scale(0.100000,-0.100000)"
fill="#000000" stroke="none">
<path d="M4279 11910 c-256 -6 -268 -9 -306 -67 -17 -25 -18 -89 -23 -933 l-5
-905 -1865 -5 c-2075 -6 -1907 1 -1945 -75 -20 -40 -20 -63 -23 -3884 l-2
-3845 20 -42 c41 -84 -30 -79 1035 -82 l940 -3 895 -893 c492 -491 909 -901
925 -911 17 -9 39 -31 50 -48 11 -17 35 -40 53 -50 74 -43 27 -85 1037 924
506 505 925 919 930 919 5 0 428 -419 940 -930 l930 -930 57 0 c51 0 60 3 85
32 70 79 1819 1828 1828 1828 5 0 397 -387 870 -860 473 -474 877 -871 898
-882 20 -12 37 -25 37 -29 0 -20 56 -70 90 -80 35 -11 43 -9 82 14 24 14 450
433 948 931 498 498 909 906 915 906 6 0 426 -417 935 -926 578 -578 938 -931
959 -940 18 -8 43 -14 55 -14 37 0 86 38 106 83 14 31 252 275 927 949 l908
907 940 3 c1065 3 994 -2 1035 82 l20 43 -4 3629 c-2 1996 -8 3726 -13 3844
-10 246 -18 277 -84 310 -37 20 -74 20 -1889 20 l-1851 0 2 918 c1 761 -1 922
-12 941 -8 12 -32 30 -55 41 -40 20 -69 20 -1830 20 -984 -1 -1860 -5 -1947
-10 -172 -9 -192 -15 -228 -73 -20 -32 -20 -45 -16 -912 2 -484 8 -890 12
-902 l7 -23 -1806 0 -1807 0 2 918 c1 761 -1 922 -12 941 -8 12 -32 30 -55 41
-40 20 -67 20 -1750 18 -940 -1 -1815 -4 -1945 -8z m3513 -1140 l-3 -900 21
-38 c30 -53 48 -61 158 -72 57 -6 866 -10 1958 -10 1630 0 1865 2 1891 15 66
33 81 81 72 235 -4 58 -7 457 -8 888 l-1 782 1798 0 1797 0 -3 -897 c-2 -650
0 -904 8 -923 25 -61 58 -79 160 -90 59 -6 763 -10 1872 -10 l1776 0 7 -52 c4
-29 9 -1701 11 -3715 l4 -3663 -918 0 c-1015 0 -958 4 -1003 -63 -28 -41
-1781 -1797 -1794 -1797 -5 0 -428 418 -940 930 l-930 930 -50 0 -50 0 -930
-930 c-512 -511 -935 -930 -940 -930 -5 0 -428 418 -940 930 l-930 930 -50 0
-50 0 -930 -930 c-512 -512 -935 -930 -940 -930 -5 0 -428 418 -940 930 l-930
930 -50 0 -50 0 -935 -935 -935 -935 -920 920 c-506 507 -933 927 -949 935
-25 13 -159 15 -938 15 l-908 0 0 3715 0 3715 1858 0 c1680 0 1862 2 1891 16
48 24 65 59 74 149 5 44 11 457 13 918 l5 837 1797 0 1797 0 -3 -900z"/>
</g>
</svg>
