<?xml version="1.0" standalone="no"?>
<!DOCTYPE svg PUBLIC "-//W3C//DTD SVG 20010904//EN"
 "http://www.w3.org/TR/2001/REC-SVG-20010904/DTD/svg10.dtd">
<svg version="1.0" xmlns="http://www.w3.org/2000/svg"
 width="1968.000000pt" height="1204.000000pt" viewBox="0 0 1968.000000 1204.000000"
 preserveAspectRatio="xMidYMid meet">
<metadata>
Created by potrace 1.15, written by Peter Selinger 2001-2017
</metadata>
<g transform="translate(0.000000,1204.000000) scale(0.100000,-0.100000)"
fill="#000000" stroke="none">
<path d="M4174 11910 c-145 -7 -169 -16 -204 -73 -19 -31 -20 -58 -20 -934 l0
-903 -1857 0 c-1824 0 -1859 0 -1890 -20 -62 -37 -67 -56 -76 -260 -9 -209
-18 -8971 -10 -9294 l6 -209 31 -34 31 -34 9565 1 c5261 1 9590 3 9620 6 119
10 143 39 160 194 6 58 15 141 21 184 5 48 9 1889 9 4723 0 4627 0 4644 -20
4683 -11 22 -29 44 -40 50 -14 8 -578 11 -1900 10 l-1880 0 0 916 c0 912 0
916 -21 945 -11 16 -37 36 -56 44 -31 13 -720 15 -5687 13 -3108 -1 -5710 -4
-5782 -8z m11298 -1140 l-4 -899 22 -39 c30 -53 50 -63 154 -73 50 -4 895 -9
1879 -9 l1787 0 -2 -4672 c-2 -3103 -6 -4672 -13 -4675 -5 -1 -4220 -5 -9365
-8 -5145 -2 -9403 -5 -9463 -7 l-107 -3 0 4569 c0 2513 3 4620 7 4683 l6 113
1861 0 c1839 0 1861 0 1894 20 18 11 41 34 52 52 19 32 20 53 20 941 l0 907
5638 0 5637 0 -3 -900z"/>
</g>
</svg>
