<?xml version="1.0" standalone="no"?>
<!DOCTYPE svg PUBLIC "-//W3C//DTD SVG 20010904//EN"
 "http://www.w3.org/TR/2001/REC-SVG-20010904/DTD/svg10.dtd">
<svg version="1.0" xmlns="http://www.w3.org/2000/svg"
 width="1968.000000pt" height="1204.000000pt" viewBox="0 0 1968.000000 1204.000000"
 preserveAspectRatio="xMidYMid meet">
<metadata>
Created by potrace 1.15, written by Peter Selinger 2001-2017
</metadata>
<g transform="translate(0.000000,1204.000000) scale(0.100000,-0.100000)"
fill="#000000" stroke="none">
<path d="M8012 11909 c-145 -8 -168 -16 -202 -72 -19 -31 -20 -58 -20 -934 l0
-903 -3777 0 c-3727 0 -3778 0 -3810 -20 -62 -38 -67 -55 -76 -265 -10 -245
-21 -8492 -12 -9064 l7 -434 32 -35 32 -34 1940 1 c1803 2 1941 3 1973 19 69
34 75 53 83 255 4 100 10 512 14 915 l6 732 1805 0 c1715 0 1805 -1 1797 -17
-4 -10 -9 -420 -12 -911 l-4 -892 27 -36 c53 -69 -101 -64 2012 -64 1806 0
1920 1 1952 18 69 35 75 53 83 250 4 97 10 509 14 914 l6 738 1805 0 1805 0
-7 -23 c-4 -12 -9 -418 -12 -902 -4 -868 -4 -880 16 -912 42 -66 45 -67 365
-75 347 -8 3323 -7 3514 1 l134 6 28 32 29 33 1 4827 c0 4587 -1 4830 -17
4863 -10 19 -33 45 -52 57 l-34 23 -3789 0 -3790 0 3 918 c3 1019 8 946 -67
982 -40 20 -68 20 -1855 18 -998 0 -1874 -4 -1947 -9z m3634 -276 c-4 -21 -9
-426 -13 -900 l-5 -861 22 -39 c30 -54 46 -62 152 -73 59 -6 1465 -10 3800
-10 l3708 0 2 -4671 c2 -2568 0 -4673 -4 -4677 -4 -4 -813 -6 -1798 -4 l-1792
2 3 918 c2 724 0 922 -10 940 -7 13 -27 32 -44 42 -31 20 -68 20 -1897 20
-1094 0 -1905 -4 -1962 -10 -110 -11 -128 -19 -157 -71 -21 -36 -21 -46 -21
-795 0 -418 -3 -823 -7 -901 l-6 -143 -1789 0 -1788 0 1 778 c1 427 4 827 8
887 6 117 -2 178 -28 209 -42 48 57 46 -1933 46 -1093 0 -1903 -4 -1960 -10
-110 -11 -128 -19 -157 -71 -21 -36 -21 -47 -22 -830 -1 -437 -4 -841 -8 -899
l-6 -105 -1675 -8 c-921 -4 -1726 -8 -1788 -10 l-112 -2 0 4560 c0 2508 3
4615 7 4683 l6 122 3781 1 c3553 0 3783 1 3810 18 16 9 39 35 50 56 21 40 21
51 24 943 l2 902 1806 0 1806 0 -6 -37z"/>
</g>
</svg>
