<svg xmlns="http://www.w3.org/2000/svg" viewBox="-2 -2 504 2304" width="506" height="2306">
  <defs>
    <style type="text/css"><![CDATA[
text {
  font-size: 40px;
  font-family: sans-serif;
  fill: #000000;
}

path {
  stroke: #000000;
  stroke-width: 6px;
}

/*
IBM palette for colour-blind people
https://davidmathlogic.com/colorblind/#%23648FFF-%23785EF0-%23DC267F-%23FE6100-%23FFB000
*/

.test {
  fill: #FFB000;
}

.infrastructure {
  fill: #DC267F;
}

.production {
  fill: #648FFF;
}

    ]]></style>
  </defs>
  <g transform="translate(0, 0)" class="test">
    <path stroke="#000000" stroke-width="4" d="M 0 0 l 50 0 l 50 0 l 50 0 l 50 0 l 50 0 l 50 0 l 50 0 l 50 0 l 50 0 l 50 0 l 0 50 l 0 150 l 0 50 l -50 0 l -50 0 l -50 0 l 0 -50 l -50 0 l -50 0 l -50 0 l -50 0 l 0 50 l -50 0 l -50 0 l -50 0 z" />
    <text x="50%" y="128" alignment-baseline="middle" text-anchor="middle">Actor</text>
  </g>
  <g transform="translate(0, 200)" class="test">
    <path stroke="#000000" stroke-width="4" d="M 0 50 l 50 0 l 50 0 l 50 0 l 0 -50 l 50 0 l 50 0 l 50 0 l 50 0 l 0 50 l 50 0 l 50 0 l 50 0 l 0 150 l 0 50 l -50 0 l -50 0 l -50 -50 l -50 50 l -50 -50 l -50 50 l -50 -50 l -50 50 l -50 0 l -50 0 z" />
    <text x="50%" y="128" alignment-baseline="middle" text-anchor="middle">WebDriverInteraction</text>
  </g>
  <g transform="translate(0, 400)" class="infrastructure">
    <path stroke="#000000" stroke-width="4" d="M 0 50 l 50 0 l 50 0 l 50 -50 l 50 50 l 50 -50 l 50 50 l 50 -50 l 50 50 l 50 0 l 50 0 l 0 150 l 0 50 l -50 0 l -50 0 l -50 -50 l -50 50 l -50 0 l -50 0 l -50 -50 l -50 50 l -50 0 l -50 0 z" />
    <text x="50%" y="128" alignment-baseline="middle" text-anchor="middle">Browser</text>
  </g>
  <g transform="translate(0, 600)" class="infrastructure">
    <path stroke="#000000" stroke-width="4" d="M 0 50 l 50 0 l 50 0 l 50 -50 l 50 50 l 50 0 l 50 0 l 50 -50 l 50 50 l 50 0 l 50 0 l 0 150 l -50 0 l -50 0 l -50 50 l -50 -50 l -50 0 l -50 0 l -50 50 l -50 -50 l -50 0 l -50 0 z" />
    <text x="50%" y="128" alignment-baseline="middle" text-anchor="middle">DOM</text>
  </g>
  <g transform="translate(0, 800)" class="production">
    <path stroke="#000000" stroke-width="4" d="M 0 0 l 50 0 l 50 0 l 50 50 l 50 -50 l 50 0 l 50 0 l 50 50 l 50 -50 l 50 0 l 50 0 l 0 50 l 0 150 l 0 50 l -50 0 l -50 0 l 0 -50 l -50 0 l -50 0 l 0 50 l -50 0 l -50 0 l 0 -50 l -50 0 l -50 0 l 0 50 l -50 0 l -50 0 z" />
    <text x="50%" y="128" alignment-baseline="middle" text-anchor="middle">ReactApp</text>
  </g>
  <g transform="translate(0, 1000)" class="production">
    <path stroke="#000000" stroke-width="4" d="M 0 50 l 50 0 l 50 0 l 0 -50 l 50 0 l 50 0 l 0 50 l 50 0 l 50 0 l 0 -50 l 50 0 l 50 0 l 0 50 l 50 0 l 50 0 l 0 150 l -50 0 l -50 0 l 0 50 l -50 0 l -50 0 l 0 -50 l -50 0 l -50 0 l 0 50 l -50 0 l -50 0 l 0 -50 l -50 0 l -50 0 z" />
    <text x="50%" y="128" alignment-baseline="middle" text-anchor="middle">HttpSession</text>
  </g>
  <g transform="translate(0, 1200)" class="infrastructure">
    <path stroke="#000000" stroke-width="4" d="M 0 0 l 50 0 l 50 0 l 0 50 l 50 0 l 50 0 l 0 -50 l 50 0 l 50 0 l 0 50 l 50 0 l 50 0 l 0 -50 l 50 0 l 50 0 l 0 50 l 0 150 l 0 50 l -50 0 l -50 0 l 0 -50 l -50 0 l -50 0 l 0 50 l -50 0 l -50 0 l 0 -50 l -50 0 l -50 0 l 0 50 l -50 0 l -50 0 z" />
    <text x="50%" y="128" alignment-baseline="middle" text-anchor="middle">Network</text>
  </g>
  <g transform="translate(0, 1400)" class="production">
    <path stroke="#000000" stroke-width="4" d="M 0 50 l 50 0 l 50 0 l 0 -50 l 50 0 l 50 0 l 0 50 l 50 0 l 50 0 l 0 -50 l 50 0 l 50 0 l 0 50 l 50 0 l 50 0 l 0 150 l 0 50 l -50 0 l 0 -50 l -50 0 l 0 50 l -50 0 l 0 -50 l -50 0 l 0 50 l -50 0 l -50 0 l 0 -50 l -50 0 l 0 50 l -50 0 l 0 -50 l -50 0 l 0 50 l -50 0 z" />
    <text x="50%" y="128" alignment-baseline="middle" text-anchor="middle">ExpressApp</text>
  </g>
  <g transform="translate(0, 1600)" class="production">
    <path stroke="#000000" stroke-width="4" d="M 0 50 l 50 0 l 0 -50 l 50 0 l 0 50 l 50 0 l 0 -50 l 50 0 l 0 50 l 50 0 l 50 0 l 0 -50 l 50 0 l 0 50 l 50 0 l 0 -50 l 50 0 l 0 50 l 50 0 l 0 150 l 0 50 l -50 0 l -50 0 l -50 0 l -50 0 l -50 0 l -50 0 l -50 0 l -50 0 l -50 0 l -50 0 z" />
    <text x="50%" y="128" alignment-baseline="middle" text-anchor="middle">DomainLogic</text>
  </g>
</svg>
